<svg xmlns="http://www.w3.org/2000/svg" xmlns:xlink="http://www.w3.org/1999/xlink" width="249" zoomAndPan="magnify" viewBox="0 0 186.75 54" height="72" preserveAspectRatio="xMidYMid meet" version="1.0"><defs><g/><clipPath id="4dbb9eec3d"><path d="M 1.574219 9.269531 L 43.453125 9.269531 L 43.453125 43.304688 L 1.574219 43.304688 Z M 1.574219 9.269531 " clip-rule="nonzero"/></clipPath><clipPath id="748fcf1936"><path d="M 2.550781 20.621094 C 1.957031 22.367188 1.566406 24.351562 1.566406 26.296875 C 1.566406 28.242188 1.902344 30.117188 2.496094 31.84375 C 2.515625 31.878906 2.515625 31.917969 2.53125 31.953125 C 4.90625 38.4375 11.171875 43.210938 18.496094 43.304688 L 43.453125 43.304688 L 43.453125 9.269531 L 18.515625 9.269531 C 11.136719 9.363281 4.867188 14.066406 2.550781 20.621094 Z M 2.550781 20.621094 " clip-rule="nonzero"/></clipPath></defs><g fill="#000000" fill-opacity="1"><g transform="translate(47.202503, 35.385201)"><g><path d="M 8.65625 0.234375 C 6.40625 0.234375 4.644531 -0.304688 3.375 -1.390625 C 2.101562 -2.484375 1.46875 -4.125 1.46875 -6.3125 L 1.46875 -15.96875 C 1.46875 -16.144531 1.519531 -16.289062 1.625 -16.40625 C 1.738281 -16.53125 1.882812 -16.59375 2.0625 -16.59375 L 5.3125 -16.59375 C 5.476562 -16.59375 5.617188 -16.53125 5.734375 -16.40625 C 5.859375 -16.289062 5.921875 -16.144531 5.921875 -15.96875 L 5.921875 -6.359375 C 5.921875 -5.378906 6.15625 -4.640625 6.625 -4.140625 C 7.09375 -3.648438 7.757812 -3.40625 8.625 -3.40625 C 9.5 -3.40625 10.164062 -3.65625 10.625 -4.15625 C 11.09375 -4.65625 11.328125 -5.390625 11.328125 -6.359375 L 11.328125 -15.96875 C 11.328125 -16.144531 11.382812 -16.289062 11.5 -16.40625 C 11.625 -16.53125 11.773438 -16.59375 11.953125 -16.59375 L 15.171875 -16.59375 C 15.347656 -16.59375 15.492188 -16.53125 15.609375 -16.40625 C 15.722656 -16.289062 15.78125 -16.144531 15.78125 -15.96875 L 15.78125 -6.3125 C 15.78125 -4.125 15.148438 -2.484375 13.890625 -1.390625 C 12.628906 -0.304688 10.882812 0.234375 8.65625 0.234375 Z M 8.65625 0.234375 "/></g></g></g><g fill="#000000" fill-opacity="1"><g transform="translate(64.452229, 35.385201)"><g><path d="M 2.203125 0 C 2.046875 0 1.90625 -0.0546875 1.78125 -0.171875 C 1.664062 -0.296875 1.609375 -0.4375 1.609375 -0.59375 L 1.609375 -16 C 1.609375 -16.175781 1.664062 -16.316406 1.78125 -16.421875 C 1.90625 -16.535156 2.046875 -16.59375 2.203125 -16.59375 L 5.515625 -16.59375 C 5.691406 -16.59375 5.832031 -16.535156 5.9375 -16.421875 C 6.050781 -16.316406 6.109375 -16.175781 6.109375 -16 L 6.109375 -3.71875 L 13.21875 -3.71875 C 13.394531 -3.71875 13.539062 -3.65625 13.65625 -3.53125 C 13.78125 -3.414062 13.84375 -3.273438 13.84375 -3.109375 L 13.84375 -0.59375 C 13.84375 -0.414062 13.78125 -0.269531 13.65625 -0.15625 C 13.539062 -0.0507812 13.394531 0 13.21875 0 Z M 2.203125 0 "/></g></g></g><g fill="#000000" fill-opacity="1"><g transform="translate(78.669035, 35.385201)"><g><path d="M 7.890625 0.234375 C 6.359375 0.234375 5.054688 0.015625 3.984375 -0.421875 C 2.910156 -0.867188 2.097656 -1.453125 1.546875 -2.171875 C 0.992188 -2.898438 0.695312 -3.691406 0.65625 -4.546875 C 0.65625 -4.691406 0.707031 -4.8125 0.8125 -4.90625 C 0.914062 -5 1.039062 -5.046875 1.1875 -5.046875 L 4.34375 -5.046875 C 4.53125 -5.046875 4.679688 -5.015625 4.796875 -4.953125 C 4.921875 -4.890625 5.050781 -4.78125 5.1875 -4.625 C 5.394531 -4.238281 5.710938 -3.921875 6.140625 -3.671875 C 6.578125 -3.429688 7.160156 -3.3125 7.890625 -3.3125 C 8.742188 -3.3125 9.398438 -3.441406 9.859375 -3.703125 C 10.316406 -3.960938 10.546875 -4.320312 10.546875 -4.78125 C 10.546875 -5.113281 10.425781 -5.382812 10.1875 -5.59375 C 9.957031 -5.8125 9.578125 -6.003906 9.046875 -6.171875 C 8.523438 -6.335938 7.773438 -6.523438 6.796875 -6.734375 C 4.890625 -7.109375 3.460938 -7.679688 2.515625 -8.453125 C 1.566406 -9.234375 1.09375 -10.34375 1.09375 -11.78125 C 1.09375 -12.757812 1.363281 -13.628906 1.90625 -14.390625 C 2.445312 -15.160156 3.21875 -15.757812 4.21875 -16.1875 C 5.226562 -16.613281 6.398438 -16.828125 7.734375 -16.828125 C 9.117188 -16.828125 10.320312 -16.585938 11.34375 -16.109375 C 12.363281 -15.628906 13.144531 -15.023438 13.6875 -14.296875 C 14.226562 -13.578125 14.515625 -12.875 14.546875 -12.1875 C 14.546875 -12.039062 14.5 -11.914062 14.40625 -11.8125 C 14.3125 -11.707031 14.195312 -11.65625 14.0625 -11.65625 L 10.734375 -11.65625 C 10.390625 -11.65625 10.125 -11.800781 9.9375 -12.09375 C 9.84375 -12.425781 9.597656 -12.707031 9.203125 -12.9375 C 8.804688 -13.164062 8.316406 -13.28125 7.734375 -13.28125 C 7.066406 -13.28125 6.550781 -13.160156 6.1875 -12.921875 C 5.820312 -12.679688 5.640625 -12.332031 5.640625 -11.875 C 5.640625 -11.414062 5.875 -11.054688 6.34375 -10.796875 C 6.820312 -10.535156 7.707031 -10.269531 9 -10 C 10.488281 -9.726562 11.671875 -9.390625 12.546875 -8.984375 C 13.421875 -8.585938 14.066406 -8.066406 14.484375 -7.421875 C 14.910156 -6.785156 15.125 -5.976562 15.125 -5 C 15.125 -3.925781 14.816406 -2.992188 14.203125 -2.203125 C 13.585938 -1.410156 12.734375 -0.804688 11.640625 -0.390625 C 10.546875 0.0234375 9.296875 0.234375 7.890625 0.234375 Z M 7.890625 0.234375 "/></g></g></g><g fill="#000000" fill-opacity="1"><g transform="translate(94.449701, 35.385201)"><g><path d="M 2.203125 0 C 2.046875 0 1.90625 -0.0546875 1.78125 -0.171875 C 1.664062 -0.296875 1.609375 -0.4375 1.609375 -0.59375 L 1.609375 -15.96875 C 1.609375 -16.144531 1.660156 -16.289062 1.765625 -16.40625 C 1.878906 -16.53125 2.023438 -16.59375 2.203125 -16.59375 L 13.390625 -16.59375 C 13.566406 -16.59375 13.710938 -16.53125 13.828125 -16.40625 C 13.953125 -16.289062 14.015625 -16.144531 14.015625 -15.96875 L 14.015625 -13.625 C 14.015625 -13.457031 13.953125 -13.316406 13.828125 -13.203125 C 13.710938 -13.085938 13.566406 -13.03125 13.390625 -13.03125 L 5.90625 -13.03125 L 5.90625 -10.03125 L 12.875 -10.03125 C 13.039062 -10.03125 13.179688 -9.96875 13.296875 -9.84375 C 13.421875 -9.726562 13.484375 -9.582031 13.484375 -9.40625 L 13.484375 -7.25 C 13.484375 -7.082031 13.421875 -6.9375 13.296875 -6.8125 C 13.179688 -6.695312 13.039062 -6.640625 12.875 -6.640625 L 5.90625 -6.640625 L 5.90625 -3.5625 L 13.578125 -3.5625 C 13.753906 -3.5625 13.898438 -3.5 14.015625 -3.375 C 14.140625 -3.257812 14.203125 -3.113281 14.203125 -2.9375 L 14.203125 -0.59375 C 14.203125 -0.414062 14.140625 -0.269531 14.015625 -0.15625 C 13.898438 -0.0507812 13.753906 0 13.578125 0 Z M 2.203125 0 "/></g></g></g><g fill="#000000" fill-opacity="1"><g transform="translate(109.661703, 35.385201)"><g/></g></g><g fill="#374151" fill-opacity="1"><g transform="translate(114.659051, 35.385201)"><g><path d="M 7 0 C 6.757812 0 6.570312 -0.0507812 6.4375 -0.15625 C 6.300781 -0.269531 6.191406 -0.421875 6.109375 -0.609375 L 0.828125 -15.859375 C 0.796875 -15.953125 0.78125 -16.039062 0.78125 -16.125 C 0.78125 -16.25 0.828125 -16.359375 0.921875 -16.453125 C 1.015625 -16.546875 1.125 -16.59375 1.25 -16.59375 L 2.484375 -16.59375 C 2.671875 -16.59375 2.816406 -16.539062 2.921875 -16.4375 C 3.023438 -16.332031 3.09375 -16.242188 3.125 -16.171875 L 7.75 -2.71875 L 12.390625 -16.171875 C 12.421875 -16.242188 12.484375 -16.332031 12.578125 -16.4375 C 12.679688 -16.539062 12.828125 -16.59375 13.015625 -16.59375 L 14.25 -16.59375 C 14.375 -16.59375 14.488281 -16.546875 14.59375 -16.453125 C 14.695312 -16.359375 14.75 -16.25 14.75 -16.125 C 14.75 -16.039062 14.734375 -15.953125 14.703125 -15.859375 L 9.390625 -0.609375 C 9.328125 -0.421875 9.226562 -0.269531 9.09375 -0.15625 C 8.957031 -0.0507812 8.769531 0 8.53125 0 Z M 7 0 "/></g></g></g><g fill="#374151" fill-opacity="1"><g transform="translate(129.870941, 35.385201)"><g><path d="M 2.296875 0 C 2.140625 0 2.007812 -0.0507812 1.90625 -0.15625 C 1.800781 -0.257812 1.75 -0.390625 1.75 -0.546875 L 1.75 -11.78125 C 1.75 -11.9375 1.800781 -12.066406 1.90625 -12.171875 C 2.007812 -12.273438 2.140625 -12.328125 2.296875 -12.328125 L 3.4375 -12.328125 C 3.59375 -12.328125 3.722656 -12.273438 3.828125 -12.171875 C 3.929688 -12.066406 3.984375 -11.9375 3.984375 -11.78125 L 3.984375 -0.546875 C 3.984375 -0.390625 3.929688 -0.257812 3.828125 -0.15625 C 3.722656 -0.0507812 3.59375 0 3.4375 0 Z M 2.109375 -14.625 C 1.953125 -14.625 1.820312 -14.675781 1.71875 -14.78125 C 1.613281 -14.882812 1.5625 -15.015625 1.5625 -15.171875 L 1.5625 -16.453125 C 1.5625 -16.609375 1.613281 -16.738281 1.71875 -16.84375 C 1.820312 -16.957031 1.953125 -17.015625 2.109375 -17.015625 L 3.609375 -17.015625 C 3.765625 -17.015625 3.894531 -16.957031 4 -16.84375 C 4.113281 -16.738281 4.171875 -16.609375 4.171875 -16.453125 L 4.171875 -15.171875 C 4.171875 -15.015625 4.113281 -14.882812 4 -14.78125 C 3.894531 -14.675781 3.765625 -14.625 3.609375 -14.625 Z M 2.109375 -14.625 "/></g></g></g><g fill="#374151" fill-opacity="1"><g transform="translate(135.60505, 35.385201)"><g><path d="M 7.84375 0.234375 C 6.894531 0.234375 6.101562 0.0664062 5.46875 -0.265625 C 4.84375 -0.609375 4.335938 -1.035156 3.953125 -1.546875 L 3.953125 -0.546875 C 3.953125 -0.390625 3.898438 -0.257812 3.796875 -0.15625 C 3.703125 -0.0507812 3.570312 0 3.40625 0 L 2.328125 0 C 2.160156 0 2.023438 -0.0507812 1.921875 -0.15625 C 1.828125 -0.257812 1.78125 -0.390625 1.78125 -0.546875 L 1.78125 -16.28125 C 1.78125 -16.4375 1.828125 -16.566406 1.921875 -16.671875 C 2.023438 -16.773438 2.160156 -16.828125 2.328125 -16.828125 L 3.484375 -16.828125 C 3.640625 -16.828125 3.765625 -16.773438 3.859375 -16.671875 C 3.953125 -16.566406 4 -16.4375 4 -16.28125 L 4 -10.828125 C 4.394531 -11.316406 4.90625 -11.726562 5.53125 -12.0625 C 6.15625 -12.394531 6.925781 -12.5625 7.84375 -12.5625 C 8.726562 -12.5625 9.484375 -12.40625 10.109375 -12.09375 C 10.734375 -11.789062 11.242188 -11.367188 11.640625 -10.828125 C 12.046875 -10.296875 12.351562 -9.6875 12.5625 -9 C 12.769531 -8.320312 12.890625 -7.613281 12.921875 -6.875 C 12.929688 -6.625 12.9375 -6.382812 12.9375 -6.15625 C 12.9375 -5.9375 12.929688 -5.703125 12.921875 -5.453125 C 12.890625 -4.691406 12.769531 -3.972656 12.5625 -3.296875 C 12.351562 -2.617188 12.046875 -2.015625 11.640625 -1.484375 C 11.242188 -0.953125 10.734375 -0.53125 10.109375 -0.21875 C 9.484375 0.0820312 8.726562 0.234375 7.84375 0.234375 Z M 7.34375 -1.6875 C 8.164062 -1.6875 8.8125 -1.863281 9.28125 -2.21875 C 9.75 -2.570312 10.082031 -3.035156 10.28125 -3.609375 C 10.488281 -4.191406 10.609375 -4.8125 10.640625 -5.46875 C 10.660156 -5.925781 10.660156 -6.382812 10.640625 -6.84375 C 10.609375 -7.507812 10.488281 -8.128906 10.28125 -8.703125 C 10.082031 -9.285156 9.75 -9.753906 9.28125 -10.109375 C 8.8125 -10.460938 8.164062 -10.640625 7.34375 -10.640625 C 6.601562 -10.640625 5.988281 -10.460938 5.5 -10.109375 C 5.007812 -9.765625 4.640625 -9.320312 4.390625 -8.78125 C 4.148438 -8.25 4.019531 -7.707031 4 -7.15625 C 3.988281 -6.90625 3.984375 -6.601562 3.984375 -6.25 C 3.984375 -5.894531 3.988281 -5.585938 4 -5.328125 C 4.03125 -4.742188 4.160156 -4.171875 4.390625 -3.609375 C 4.617188 -3.046875 4.972656 -2.582031 5.453125 -2.21875 C 5.941406 -1.863281 6.570312 -1.6875 7.34375 -1.6875 Z M 7.34375 -1.6875 "/></g></g></g><g fill="#374151" fill-opacity="1"><g transform="translate(149.703401, 35.385201)"><g><path d="M 6.6875 0.234375 C 5.039062 0.234375 3.734375 -0.265625 2.765625 -1.265625 C 1.804688 -2.265625 1.28125 -3.632812 1.1875 -5.375 C 1.164062 -5.582031 1.15625 -5.847656 1.15625 -6.171875 C 1.15625 -6.492188 1.164062 -6.757812 1.1875 -6.96875 C 1.25 -8.09375 1.507812 -9.078125 1.96875 -9.921875 C 2.425781 -10.765625 3.050781 -11.414062 3.84375 -11.875 C 4.644531 -12.332031 5.582031 -12.5625 6.65625 -12.5625 C 7.863281 -12.5625 8.875 -12.304688 9.6875 -11.796875 C 10.5 -11.296875 11.117188 -10.578125 11.546875 -9.640625 C 11.972656 -8.710938 12.1875 -7.625 12.1875 -6.375 L 12.1875 -5.96875 C 12.1875 -5.800781 12.132812 -5.664062 12.03125 -5.5625 C 11.925781 -5.46875 11.796875 -5.421875 11.640625 -5.421875 L 3.4375 -5.421875 C 3.4375 -5.410156 3.4375 -5.378906 3.4375 -5.328125 C 3.4375 -5.285156 3.4375 -5.25 3.4375 -5.21875 C 3.46875 -4.570312 3.609375 -3.96875 3.859375 -3.40625 C 4.117188 -2.84375 4.488281 -2.382812 4.96875 -2.03125 C 5.445312 -1.6875 6.007812 -1.515625 6.65625 -1.515625 C 7.226562 -1.515625 7.703125 -1.597656 8.078125 -1.765625 C 8.460938 -1.941406 8.769531 -2.132812 9 -2.34375 C 9.238281 -2.5625 9.398438 -2.738281 9.484375 -2.875 C 9.617188 -3.0625 9.726562 -3.171875 9.8125 -3.203125 C 9.894531 -3.242188 10.019531 -3.265625 10.1875 -3.265625 L 11.359375 -3.265625 C 11.492188 -3.265625 11.613281 -3.222656 11.71875 -3.140625 C 11.820312 -3.054688 11.863281 -2.929688 11.84375 -2.765625 C 11.832031 -2.535156 11.707031 -2.25 11.46875 -1.90625 C 11.226562 -1.570312 10.890625 -1.238281 10.453125 -0.90625 C 10.023438 -0.570312 9.488281 -0.296875 8.84375 -0.078125 C 8.207031 0.128906 7.488281 0.234375 6.6875 0.234375 Z M 3.4375 -7.0625 L 9.9375 -7.0625 L 9.9375 -7.140625 C 9.9375 -7.847656 9.804688 -8.476562 9.546875 -9.03125 C 9.285156 -9.582031 8.910156 -10.019531 8.421875 -10.34375 C 7.929688 -10.664062 7.34375 -10.828125 6.65625 -10.828125 C 5.976562 -10.828125 5.398438 -10.664062 4.921875 -10.34375 C 4.441406 -10.019531 4.070312 -9.582031 3.8125 -9.03125 C 3.5625 -8.476562 3.4375 -7.847656 3.4375 -7.140625 Z M 3.4375 -7.0625 "/></g></g></g><g fill="#374151" fill-opacity="1"><g transform="translate(162.972433, 35.385201)"><g><path d="M 6.015625 0.234375 C 5.128906 0.234375 4.367188 0.125 3.734375 -0.09375 C 3.109375 -0.3125 2.597656 -0.578125 2.203125 -0.890625 C 1.804688 -1.210938 1.507812 -1.53125 1.3125 -1.84375 C 1.113281 -2.164062 1.007812 -2.421875 1 -2.609375 C 0.976562 -2.785156 1.03125 -2.921875 1.15625 -3.015625 C 1.28125 -3.109375 1.410156 -3.15625 1.546875 -3.15625 L 2.609375 -3.15625 C 2.679688 -3.15625 2.742188 -3.140625 2.796875 -3.109375 C 2.859375 -3.085938 2.9375 -3.023438 3.03125 -2.921875 C 3.238281 -2.691406 3.46875 -2.46875 3.71875 -2.25 C 3.96875 -2.03125 4.28125 -1.847656 4.65625 -1.703125 C 5.03125 -1.566406 5.492188 -1.5 6.046875 -1.5 C 6.847656 -1.5 7.507812 -1.648438 8.03125 -1.953125 C 8.550781 -2.265625 8.8125 -2.71875 8.8125 -3.3125 C 8.8125 -3.707031 8.703125 -4.023438 8.484375 -4.265625 C 8.273438 -4.503906 7.898438 -4.71875 7.359375 -4.90625 C 6.816406 -5.09375 6.070312 -5.289062 5.125 -5.5 C 4.175781 -5.71875 3.421875 -5.988281 2.859375 -6.3125 C 2.304688 -6.632812 1.910156 -7.019531 1.671875 -7.46875 C 1.441406 -7.925781 1.328125 -8.4375 1.328125 -9 C 1.328125 -9.59375 1.5 -10.160156 1.84375 -10.703125 C 2.195312 -11.242188 2.707031 -11.6875 3.375 -12.03125 C 4.050781 -12.382812 4.894531 -12.5625 5.90625 -12.5625 C 6.726562 -12.5625 7.429688 -12.457031 8.015625 -12.25 C 8.597656 -12.050781 9.078125 -11.796875 9.453125 -11.484375 C 9.835938 -11.171875 10.125 -10.863281 10.3125 -10.5625 C 10.5 -10.269531 10.601562 -10.019531 10.625 -9.8125 C 10.632812 -9.65625 10.582031 -9.523438 10.46875 -9.421875 C 10.363281 -9.316406 10.238281 -9.265625 10.09375 -9.265625 L 9.109375 -9.265625 C 8.992188 -9.265625 8.898438 -9.285156 8.828125 -9.328125 C 8.753906 -9.378906 8.6875 -9.4375 8.625 -9.5 C 8.46875 -9.707031 8.28125 -9.910156 8.0625 -10.109375 C 7.851562 -10.316406 7.578125 -10.488281 7.234375 -10.625 C 6.898438 -10.757812 6.457031 -10.828125 5.90625 -10.828125 C 5.113281 -10.828125 4.519531 -10.660156 4.125 -10.328125 C 3.726562 -10.003906 3.53125 -9.585938 3.53125 -9.078125 C 3.53125 -8.773438 3.613281 -8.503906 3.78125 -8.265625 C 3.957031 -8.035156 4.289062 -7.820312 4.78125 -7.625 C 5.269531 -7.4375 6 -7.234375 6.96875 -7.015625 C 8.007812 -6.804688 8.828125 -6.53125 9.421875 -6.1875 C 10.023438 -5.84375 10.453125 -5.441406 10.703125 -4.984375 C 10.960938 -4.523438 11.09375 -3.992188 11.09375 -3.390625 C 11.09375 -2.722656 10.898438 -2.113281 10.515625 -1.5625 C 10.140625 -1.007812 9.570312 -0.570312 8.8125 -0.25 C 8.0625 0.0703125 7.128906 0.234375 6.015625 0.234375 Z M 6.015625 0.234375 "/></g></g></g><g clip-path="url(#4dbb9eec3d)"><g clip-path="url(#748fcf1936)"><path fill="#52a38a" d="M 43.453125 9.269531 L 43.453125 43.304688 L 1.578125 43.304688 L 1.578125 9.269531 Z M 43.453125 9.269531 " fill-opacity="1" fill-rule="nonzero"/></g></g><g fill="#fafafa" fill-opacity="1"><g transform="translate(19.727256, 36.299224)"><g><path d="M 2.96875 0 C 2.757812 0 2.570312 -0.078125 2.40625 -0.234375 C 2.25 -0.398438 2.171875 -0.585938 2.171875 -0.796875 L 2.171875 -21.5625 C 2.171875 -21.789062 2.242188 -21.984375 2.390625 -22.140625 C 2.546875 -22.304688 2.738281 -22.390625 2.96875 -22.390625 L 12.03125 -22.390625 C 14.800781 -22.390625 16.972656 -21.757812 18.546875 -20.5 C 20.128906 -19.238281 20.921875 -17.394531 20.921875 -14.96875 C 20.921875 -12.539062 20.128906 -10.722656 18.546875 -9.515625 C 16.972656 -8.304688 14.800781 -7.703125 12.03125 -7.703125 L 8.375 -7.703125 L 8.375 -0.796875 C 8.375 -0.585938 8.300781 -0.398438 8.15625 -0.234375 C 8.007812 -0.078125 7.816406 0 7.578125 0 Z M 11.859375 -12.28125 C 12.734375 -12.28125 13.421875 -12.507812 13.921875 -12.96875 C 14.429688 -13.425781 14.6875 -14.101562 14.6875 -15 C 14.6875 -15.832031 14.457031 -16.503906 14 -17.015625 C 13.539062 -17.523438 12.828125 -17.78125 11.859375 -17.78125 L 8.28125 -17.78125 L 8.28125 -12.28125 Z M 11.859375 -12.28125 "/></g></g></g></svg>